<svg xmlns="http://www.w3.org/2000/svg" xmlns:xlink="http://www.w3.org/1999/xlink" width="1700" zoomAndPan="magnify" viewBox="0 0 1275 1439.999935" height="1920" preserveAspectRatio="xMidYMid meet" version="1.0"><defs><clipPath id="46ab56b15d"><path d="M 14.496094 584.191406 L 207.375 584.191406 L 207.375 637.398438 L 14.496094 637.398438 Z M 14.496094 584.191406 " clip-rule="nonzero"/></clipPath><clipPath id="a92dee91b4"><path d="M 159.90625 584.191406 C 150.371094 584.191406 140.835938 584.414062 131.328125 584.414062 L 41.382812 584.636719 C 26.054688 584.96875 14.582031 597.023438 14.496094 610.773438 L 14.496094 611.105469 C 14.496094 611.496094 14.496094 611.855469 14.523438 612.242188 C 15.328125 627.375 25.335938 636.800781 41.910156 637.023438 L 109.738281 637.105469 C 123.070312 637.105469 136.402344 637.382812 149.707031 637.382812 C 160.378906 637.382812 171.050781 637.214844 181.667969 636.632812 C 188.789062 636.246094 197.855469 631.507812 202.066406 625.824219 C 214.902344 608.5 202.457031 585.9375 179.78125 584.664062 C 173.15625 584.300781 166.558594 584.191406 159.90625 584.191406 Z M 159.90625 584.191406 " clip-rule="nonzero"/></clipPath><clipPath id="ce1bff770d"><path d="M 443.707031 1252.222656 L 831.570312 1252.222656 L 831.570312 1316.28125 L 443.707031 1316.28125 Z M 443.707031 1252.222656 " clip-rule="nonzero"/></clipPath><clipPath id="1bf286b086"><path d="M 638.789062 1252.25 L 796.644531 1252.277344 C 817.433594 1252.304688 830.65625 1264.25 831.515625 1283.238281 C 832.265625 1300.09375 816.90625 1315.03125 797.226562 1315.972656 L 763.992188 1316.195312 C 672.132812 1316.167969 580.304688 1316.167969 488.445312 1316.003906 C 481.597656 1316.003906 474.558594 1315.558594 467.960938 1313.921875 C 452.605469 1310.097656 442.597656 1295.738281 444.09375 1281.105469 C 445.898438 1263.890625 457.761719 1252.472656 475.417969 1252.417969 L 638.789062 1252.304688 Z M 638.789062 1252.25 " clip-rule="nonzero"/></clipPath><clipPath id="d08c72b3c5"><path d="M 528.707031 1363.410156 L 746.507812 1363.410156 L 746.507812 1426.957031 L 528.707031 1426.957031 Z M 528.707031 1363.410156 " clip-rule="nonzero"/></clipPath><clipPath id="8ff9f91ee6"><path d="M 639.195312 1363.492188 L 713.953125 1363.546875 C 733.746094 1363.742188 746.328125 1376.160156 746.386719 1394.953125 C 746.441406 1414.355469 734.910156 1426.664062 714.480469 1426.859375 L 562.21875 1426.859375 C 540.683594 1426.636719 528.707031 1414.191406 528.957031 1394.648438 C 529.234375 1374.800781 541.070312 1363.769531 563.050781 1363.546875 L 639.195312 1363.492188 " clip-rule="nonzero"/></clipPath><clipPath id="c9329a5c45"><path d="M 584 313 L 1051 313 L 1051 1139 L 584 1139 Z M 584 313 " clip-rule="nonzero"/></clipPath><clipPath id="8178fd1011"><path d="M 862.296875 746.003906 C 862.101562 612.398438 776.0625 516.515625 663.71875 503.351562 C 632.449219 499.691406 611.132812 478.789062 610.496094 451.183594 C 609.832031 421.523438 628.070312 399.902344 660.777344 395.523438 C 692.183594 391.335938 713.527344 375.730469 726.25 347.152344 C 728.855469 341.277344 731.960938 335.511719 735.648438 330.273438 C 747.316406 313.667969 762.703125 309.207031 781.355469 316.746094 C 795.4375 322.457031 809.628906 327.945312 823.324219 334.511719 C 843.972656 344.4375 848.492188 357.324219 843.667969 379.777344 C 839.484375 399.265625 837.625 419.277344 834.800781 439.042969 L 834.828125 441.953125 C 855.367188 480.785156 881.921875 512.332031 923.527344 525.800781 C 935.417969 529.65625 950.554688 524.195312 964.054688 522.117188 C 971.730469 520.925781 979.050781 517.625 986.644531 515.878906 C 1005.519531 511.582031 1017.910156 516.988281 1026.476562 534.589844 C 1034.125 550.277344 1040.863281 566.464844 1047.097656 582.792969 C 1053.28125 598.980469 1048.929688 612.5625 1034.515625 622.652344 C 1025.867188 628.722656 1016.386719 633.628906 1007.183594 638.894531 C 983.34375 652.507812 969.179688 671.855469 969.789062 700.40625 C 970.207031 720.25 969.375 740.179688 970.679688 759.972656 C 972.007812 780.347656 984.039062 794.925781 1000.699219 805.625 L 1030.664062 822.839844 C 1050.203125 834.871094 1055.109375 848.3125 1047.292969 869.796875 L 1030.523438 910.652344 C 1020.683594 932.023438 1006.074219 938.179688 983.070312 932.359375 C 968.40625 928.644531 953.6875 924.707031 938.71875 922.878906 C 921.78125 920.796875 906.980469 927.671875 894.785156 939.34375 C 881.117188 952.453125 867.480469 965.648438 854.644531 979.5625 C 837.074219 998.605469 830.945312 1020.585938 839.84375 1045.894531 L 847.4375 1072.421875 C 852.539062 1093.183594 847.050781 1106.488281 827.980469 1115.914062 C 812.761719 1123.453125 796.992188 1130.160156 780.996094 1135.816406 C 763.171875 1142.136719 749.675781 1136.925781 739.28125 1120.929688 L 720.984375 1090.023438 C 707.457031 1069.234375 688.5 1058.367188 663.136719 1058.285156 C 649.027344 1058.257812 633.917969 1058.921875 621.003906 1054.375 C 592.617188 1044.371094 579.644531 1018.5625 585.464844 990.429688 C 590.34375 966.867188 613.1875 948.546875 640.847656 949.433594 C 689.691406 951.011719 732.765625 935.574219 771.019531 906.910156 C 831.445312 861.589844 861.160156 800.109375 862.1875 746.058594 " clip-rule="nonzero"/></clipPath><clipPath id="7887528dac"><path d="M 278 282.511719 L 665 282.511719 L 665 1197 L 278 1197 Z M 278 282.511719 " clip-rule="nonzero"/></clipPath><clipPath id="d0bc9428ce"><path d="M 571.386719 1194.96875 C 547.878906 1194.96875 524.152344 1196.90625 500.894531 1194.523438 C 465.414062 1190.867188 437.53125 1164.585938 433.816406 1129.246094 C 426.773438 1062.25 403.546875 1000.324219 378.074219 939.121094 C 358.808594 892.832031 337.519531 847.316406 315.121094 802.4375 C 284.578125 741.261719 274.097656 677.316406 279.613281 609.429688 C 291.976562 456.503906 408.175781 325.53125 555.472656 291.796875 C 579.148438 286.367188 603.789062 284.839844 628.097656 282.789062 C 642.289062 281.597656 654.515625 287.058594 661.140625 300.863281 C 666.820312 312.699219 666.515625 325.476562 657.371094 334.292969 C 650.800781 340.613281 640.128906 345.460938 631.007812 345.933594 C 568.476562 349.066406 511.566406 367.414062 461.730469 405.777344 C 403.351562 450.710938 364.242188 508.5625 348.359375 580.824219 C 333.722656 647.433594 340.457031 711.90625 372.335938 772.917969 C 418.488281 861.285156 457.183594 952.703125 484.179688 1048.804688 C 489.890625 1069.09375 492.828125 1090.246094 495.960938 1111.144531 C 498.402344 1127.5 503.003906 1132.90625 520.023438 1133.015625 L 629.484375 1133.210938 C 650.632812 1133.292969 664.796875 1146.347656 664.714844 1165.226562 C 664.632812 1182.855469 649.859375 1196.382812 629.59375 1196.742188 L 571.386719 1196.824219 Z M 571.386719 1194.96875 " clip-rule="nonzero"/></clipPath><clipPath id="0427236cc2"><path d="M 476 559 L 808 559 L 808 893 L 476 893 Z M 476 559 " clip-rule="nonzero"/></clipPath><clipPath id="f0536f7480"><path d="M 732.542969 725.074219 C 732.738281 675.457031 691.574219 634.265625 642.125 634.65625 C 592.617188 635.042969 551.484375 676.066406 551.761719 725.65625 C 552.039062 772.945312 587.960938 817.324219 643.484375 816.4375 C 703.496094 815.464844 734.84375 766.679688 732.542969 725.074219 M 767.496094 645.1875 C 768.078125 645.078125 771.183594 644.136719 774.34375 643.914062 C 781.191406 643.46875 792.167969 640.753906 794.109375 643.71875 C 800.34375 653.335938 804.335938 664.898438 806.746094 676.234375 C 807.386719 679.28125 799.875 684.992188 795.1875 688.125 C 776.671875 700.433594 768.355469 724.410156 778.226562 744.421875 C 781.746094 751.546875 789.671875 757.089844 796.601562 761.828125 C 809.296875 770.507812 810.824219 775.355469 803.863281 792.347656 C 799.152344 803.878906 793.941406 813.527344 778.472656 807.066406 C 749.644531 795.039062 711.253906 834.175781 725.667969 862.257812 C 730.796875 872.234375 726.363281 879.386719 715.914062 884.097656 C 691.214844 895.242188 691.351562 895.574219 676.773438 872.957031 C 662.527344 850.835938 622.777344 852.304688 608.527344 875.503906 C 596.582031 894.9375 595.5 895.269531 574.515625 886.539062 C 558.246094 879.746094 556.058594 876.613281 561.601562 859.152344 C 567.617188 840.136719 557.582031 828.773438 545.386719 817.15625 C 534.296875 806.597656 522.683594 801.996094 507.882812 808.8125 C 497.347656 813.664062 489.503906 811.03125 484.207031 799.914062 C 474.617188 779.765625 474.839844 772.835938 486.84375 764.878906 C 508.492188 750.492188 513.398438 737.519531 508.546875 712.628906 C 506.105469 700.015625 497.761719 694.167969 487.617188 688.875 C 475.285156 682.414062 474.007812 676.59375 480.410156 660.046875 C 487.0625 642.832031 491 640.253906 505.136719 643.773438 C 528.78125 649.679688 556.140625 634.65625 561.988281 611.34375 C 563.511719 605.273438 561.296875 597.707031 559.1875 591.359375 C 555.140625 579.050781 557.441406 570.652344 570.636719 566.632812 L 582.058594 561.699219 C 591.289062 557.320312 597.46875 560.0625 602.734375 568.738281 C 617.175781 592.523438 630.730469 599.007812 656.730469 591.523438 C 664.769531 589.222656 672.144531 580.601562 677.328125 573.148438 C 688.109375 557.652344 691.65625 556.015625 710.175781 564.441406 C 726.195312 571.734375 728.496094 576.859375 723.230469 593.492188 C 716.21875 615.667969 740.554688 645.992188 767.414062 645.160156 " clip-rule="nonzero"/></clipPath><clipPath id="f35f09c866"><path d="M 189.265625 162 L 341.601562 162 L 341.601562 315 L 189.265625 315 Z M 189.265625 162 " clip-rule="nonzero"/></clipPath><clipPath id="d13f89fd43"><path d="M 341.371094 285.699219 C 340.984375 306.988281 317.949219 320.488281 302.925781 311.726562 L 291.976562 303.355469 C 261.125 272.867188 230.21875 242.429688 199.785156 211.523438 C 184.09375 195.558594 186.367188 176.320312 203.914062 166.230469 C 214.695312 160.023438 224.84375 161.710938 233.101562 169.835938 L 333.832031 270.730469 C 338.296875 275.304688 339.875 282.679688 341.34375 285.726562 " clip-rule="nonzero"/></clipPath><clipPath id="49ba24e467"><path d="M 935 162 L 1086 162 L 1086 318.519531 L 935 318.519531 Z M 935 162 " clip-rule="nonzero"/></clipPath><clipPath id="3dcf6aa9f0"><path d="M 958.535156 318.324219 C 950.414062 310.730469 940.546875 305.324219 937.136719 297.175781 C 934.28125 290.328125 936.027344 277.882812 940.824219 272.199219 C 956.265625 253.90625 974.003906 237.550781 990.96875 220.558594 L 1038.285156 173.796875 C 1053.476562 159.550781 1066.476562 159.136719 1078.144531 171.25 C 1089.34375 182.863281 1088.707031 198.136719 1075.289062 211.773438 L 984.925781 301.722656 C 978.300781 308.125 969.042969 311.839844 958.535156 318.324219 " clip-rule="nonzero"/></clipPath><clipPath id="f09e299c21"><path d="M 1068 584 L 1261.152344 584 L 1261.152344 638 L 1068 638 Z M 1068 584 " clip-rule="nonzero"/></clipPath><clipPath id="328c67fb25"><path d="M 1122.882812 584.34375 C 1118.808594 584.34375 1114.761719 584.34375 1110.6875 584.34375 L 1092.726562 584.761719 C 1078.0625 586.589844 1067.582031 598.453125 1068.25 611.84375 C 1069.023438 626.867188 1079.335938 636.929688 1095.082031 637.09375 L 1162.882812 637.175781 L 1234.839844 637.09375 C 1249.394531 636.898438 1259.453125 627.476562 1260.980469 613.808594 C 1262.367188 601.503906 1252.746094 588.726562 1239.246094 585.785156 C 1233.898438 584.621094 1228.269531 584.484375 1222.78125 584.484375 C 1189.492188 584.371094 1156.175781 584.34375 1122.855469 584.34375 Z M 1122.882812 584.34375 " clip-rule="nonzero"/></clipPath><clipPath id="16ad4fd3bd"><path d="M 610.265625 13.847656 L 664 13.847656 L 664 204.960938 L 610.265625 204.960938 Z M 610.265625 13.847656 " clip-rule="nonzero"/></clipPath><clipPath id="33e6aea5db"><path d="M 639.324219 13.859375 C 632.921875 13.886719 625.910156 15.714844 621.28125 18.847656 C 615.402344 22.8125 611.496094 33.625 611.300781 41.523438 C 610.304688 85.734375 610.664062 130.003906 610.636719 174.242188 L 611.6875 181.03125 C 615.015625 196.25 624.164062 204.539062 637.382812 204.539062 C 638.410156 204.539062 639.464844 204.484375 640.542969 204.398438 C 654.125 203.125 663.050781 192.425781 663.191406 176.542969 L 663.246094 111.570312 L 663.414062 111.570312 C 663.414062 86.234375 664.519531 60.84375 662.71875 35.617188 C 662.191406 28.191406 654.738281 17.769531 648 15.246094 C 645.535156 14.304688 642.566406 13.886719 639.492188 13.859375 Z M 639.324219 13.859375 " clip-rule="nonzero"/></clipPath><clipPath id="1cf0af5613"><path d="M 933 166 L 1085 166 L 1085 319 L 933 319 Z M 933 166 " clip-rule="nonzero"/></clipPath><clipPath id="9bbe157219"><path d="M 922.308594 291.167969 L 1058.695312 154.78125 L 1096.316406 192.402344 L 959.929688 328.789062 Z M 922.308594 291.167969 " clip-rule="nonzero"/></clipPath><clipPath id="68382fb430"><path d="M 1025.128906 188.347656 C 1018.386719 195.089844 1011.800781 201.988281 1005.078125 208.710938 L 941.632812 272.46875 C 931.027344 283.542969 931.441406 300.183594 941.101562 309.960938 L 941.339844 310.199219 C 941.613281 310.472656 941.867188 310.726562 942.160156 310.980469 C 953.433594 321.113281 967.171875 320.703125 979.046875 309.140625 L 1027.066406 261.238281 C 1036.496094 251.808594 1046.121094 242.578125 1055.527344 233.171875 C 1063.074219 225.625 1070.5 217.960938 1077.597656 210.042969 C 1082.359375 204.730469 1085.417969 194.96875 1084.378906 187.972656 C 1081.203125 166.648438 1056.449219 159.496094 1039.515625 174.625 C 1034.574219 179.054688 1029.832031 183.640625 1025.128906 188.347656 Z M 1025.128906 188.347656 " clip-rule="nonzero"/></clipPath></defs><g clip-path="url(#46ab56b15d)"><g clip-path="url(#a92dee91b4)"><path fill="#ef4444" d="M 14.496094 584.191406 L 207.167969 584.191406 L 207.167969 637.398438 L 14.496094 637.398438 Z M 14.496094 584.191406 " fill-opacity="1" fill-rule="nonzero"/></g></g><g clip-path="url(#ce1bff770d)"><g clip-path="url(#1bf286b086)"><path fill="#ef4444" d="M 443.957031 1252.222656 L 831.570312 1252.222656 L 831.570312 1316.28125 L 443.957031 1316.28125 Z M 443.957031 1252.222656 " fill-opacity="1" fill-rule="nonzero"/></g></g><g clip-path="url(#d08c72b3c5)"><g clip-path="url(#8ff9f91ee6)"><path fill="#ef4444" d="M 528.957031 1363.410156 L 746.507812 1363.410156 L 746.507812 1427.203125 L 528.957031 1427.203125 Z M 528.957031 1363.410156 " fill-opacity="1" fill-rule="nonzero"/></g></g><g clip-path="url(#c9329a5c45)"><g clip-path="url(#8178fd1011)"><path fill="#facc15" d="M 175.417969 0 L 1275 0 L 1275 1210.371094 L 175.417969 1210.371094 Z M 175.417969 0 " fill-opacity="1" fill-rule="nonzero"/></g></g><g clip-path="url(#7887528dac)"><g clip-path="url(#d0bc9428ce)"><path fill="#facc15" d="M 175.417969 0 L 1275 0 L 1275 1210.371094 L 175.417969 1210.371094 Z M 175.417969 0 " fill-opacity="1" fill-rule="nonzero"/></g></g><g clip-path="url(#0427236cc2)"><g clip-path="url(#f0536f7480)"><path fill="#ef4444" d="M 175.417969 0 L 1275 0 L 1275 1210.371094 L 175.417969 1210.371094 Z M 175.417969 0 " fill-opacity="1" fill-rule="nonzero"/></g></g><g clip-path="url(#f35f09c866)"><g clip-path="url(#d13f89fd43)"><path fill="#ef4444" d="M 175.417969 0 L 1275 0 L 1275 1210.371094 L 175.417969 1210.371094 Z M 175.417969 0 " fill-opacity="1" fill-rule="nonzero"/></g></g><g clip-path="url(#49ba24e467)"><g clip-path="url(#3dcf6aa9f0)"><path fill="#ef4444" d="M 175.417969 0 L 1275 0 L 1275 1210.371094 L 175.417969 1210.371094 Z M 175.417969 0 " fill-opacity="1" fill-rule="nonzero"/></g></g><g clip-path="url(#f09e299c21)"><g clip-path="url(#328c67fb25)"><path fill="#ef4444" d="M 175.417969 0 L 1275 0 L 1275 1210.371094 L 175.417969 1210.371094 Z M 175.417969 0 " fill-opacity="1" fill-rule="nonzero"/></g></g><g clip-path="url(#16ad4fd3bd)"><g clip-path="url(#33e6aea5db)"><path fill="#ef4444" d="M 175.417969 0 L 1275 0 L 1275 1210.371094 L 175.417969 1210.371094 Z M 175.417969 0 " fill-opacity="1" fill-rule="nonzero"/></g></g><g clip-path="url(#1cf0af5613)"><g clip-path="url(#9bbe157219)"><g clip-path="url(#68382fb430)"><path fill="#ef4444" d="M 922.308594 291.167969 L 1058.546875 154.925781 L 1096.171875 192.550781 L 959.929688 328.789062 Z M 922.308594 291.167969 " fill-opacity="1" fill-rule="nonzero"/></g></g></g></svg>